<svg width="22" height="22" viewBox="0 0 22 22" fill="none" xmlns="http://www.w3.org/2000/svg">
<path d="M11.4882 0.504639C5.66294 0.504639 0.973145 5.19444 0.973145 11.0197C0.973145 16.8449 5.66294 21.5347 11.4882 21.5347C17.3134 21.5347 22.0032 16.8449 22.0032 11.0197C22.0032 5.19444 17.3134 0.504639 11.4882 0.504639ZM11.4882 19.4613C6.84773 19.4613 3.04653 15.6601 3.04653 11.0197C3.04653 6.37923 6.84773 2.57802 11.4882 2.57802C16.1286 2.57802 19.9298 6.37923 19.9298 11.0197C19.9298 15.6601 16.1286 19.4613 11.4882 19.4613ZM16.3261 6.37923L9.36542 13.2905L6.65027 10.5754L5.16928 12.0564L9.36542 16.3019L17.8071 7.86022L16.3261 6.37923Z" fill="#F9B800"/>
</svg>
